<svg width="45" height="45" viewBox="0 0 45 45" fill="none" xmlns="http://www.w3.org/2000/svg">
<path d="M22.5 16.1283C22.9479 15.6206 23.5397 15.2613 24.1968 15.0982C24.854 14.9351 25.5451 14.9759 26.1785 15.2153C26.8118 15.4547 27.3572 15.8813 27.7421 16.4383C28.127 16.9953 28.3332 17.6563 28.3332 18.3333C28.3332 19.0104 28.127 19.6714 27.7421 20.2284C27.3572 20.7854 26.8118 21.2119 26.1785 21.4513C25.5451 21.6907 24.854 21.7316 24.1968 21.5685C23.5397 21.4054 22.9479 21.0461 22.5 20.5383M25 30H15V29.1667C15 27.8406 15.5268 26.5688 16.4645 25.6311C17.4021 24.6935 18.6739 24.1667 20 24.1667C21.3261 24.1667 22.5979 24.6935 23.5355 25.6311C24.4732 26.5688 25 27.8406 25 29.1667V30ZM25 30H30V29.1667C30.0001 28.2889 29.7692 27.4266 29.3304 26.6664C28.8916 25.9062 28.2604 25.2749 27.5003 24.836C26.7402 24.3971 25.8779 24.166 25.0002 24.166C24.1224 24.1659 23.2601 24.397 22.5 24.8358M23.3333 18.3333C23.3333 19.2174 22.9821 20.0652 22.357 20.6904C21.7319 21.3155 20.8841 21.6667 20 21.6667C19.1159 21.6667 18.2681 21.3155 17.643 20.6904C17.0179 20.0652 16.6667 19.2174 16.6667 18.3333C16.6667 17.4493 17.0179 16.6014 17.643 15.9763C18.2681 15.3512 19.1159 15 20 15C20.8841 15 21.7319 15.3512 22.357 15.9763C22.9821 16.6014 23.3333 17.4493 23.3333 18.3333Z" stroke="#6B7280" stroke-width="1.5" stroke-linecap="round" stroke-linejoin="round"/>
</svg>
