<svg width="45" height="45" viewBox="0 0 45 45" fill="none" xmlns="http://www.w3.org/2000/svg">
<rect width="45" height="45" rx="22.5" fill="#F3F8FF"/>
<path d="M24.9998 14.1666V13.4166H24.2498V14.1666H24.9998ZM19.9998 14.1666H20.7498V13.4166H19.9998V14.1666ZM24.9998 30.8333H24.2498V31.5833H24.9998V30.8333ZM19.9998 30.8333V31.5833H20.7498V30.8333H19.9998ZM28.3332 14.1666H29.0832C29.0832 13.7524 28.7474 13.4166 28.3332 13.4166V14.1666ZM28.3332 30.8333V31.5833C28.7474 31.5833 29.0832 31.2475 29.0832 30.8333H28.3332ZM16.6665 30.8333H15.9165C15.9165 31.2475 16.2523 31.5833 16.6665 31.5833V30.8333ZM16.6665 14.1666V13.4166C16.2523 13.4166 15.9165 13.7524 15.9165 14.1666H16.6665ZM24.2498 14.1666C24.2498 15.1331 23.4663 15.9166 22.4998 15.9166V17.4166C24.2948 17.4166 25.7498 15.9616 25.7498 14.1666H24.2498ZM22.4998 15.9166C21.5333 15.9166 20.7498 15.1331 20.7498 14.1666H19.2498C19.2498 15.9616 20.7049 17.4166 22.4998 17.4166V15.9166ZM25.7498 30.8333C25.7498 29.0384 24.2948 27.5833 22.4998 27.5833V29.0833C23.4663 29.0833 24.2498 29.8668 24.2498 30.8333H25.7498ZM22.4998 27.5833C20.7049 27.5833 19.2498 29.0384 19.2498 30.8333H20.7498C20.7498 29.8668 21.5333 29.0833 22.4998 29.0833V27.5833ZM24.9998 14.9166H28.3332V13.4166H24.9998V14.9166ZM28.3332 30.0833H24.9998V31.5833H28.3332V30.0833ZM19.9998 30.0833H16.6665V31.5833H19.9998V30.0833ZM16.6665 14.9166H19.9998V13.4166H16.6665V14.9166ZM17.4165 30.8333V20H15.9165V30.8333H17.4165ZM17.4165 20V14.1666H15.9165V20H17.4165ZM27.5832 14.1666V20H29.0832V14.1666H27.5832ZM27.5832 20V30.8333H29.0832V20H27.5832ZM16.6665 20.75H28.3332V19.25H16.6665V20.75Z" fill="#3460FB"/>
<rect width="45" height="45" rx="22.5" fill="#F3F8FF"/>
<path fill-rule="evenodd" clip-rule="evenodd" d="M22.4998 14.7916C18.2426 14.7916 14.7915 18.2428 14.7915 22.5C14.7915 23.7342 15.0811 24.899 15.5955 25.9317C15.802 26.3462 15.8815 26.8419 15.7512 27.3287L15.2549 29.1837C15.1637 29.5244 15.4754 29.8361 15.8161 29.7449L17.6711 29.2486C18.1579 29.1183 18.6536 29.1978 19.0681 29.4043C20.1008 29.9187 21.2656 30.2083 22.4998 30.2083C26.757 30.2083 30.2082 26.7572 30.2082 22.5C30.2082 18.2428 26.757 14.7916 22.4998 14.7916ZM13.5415 22.5C13.5415 17.5524 17.5523 13.5416 22.4998 13.5416C27.4474 13.5416 31.4582 17.5524 31.4582 22.5C31.4582 27.4475 27.4474 31.4583 22.4998 31.4583C21.0679 31.4583 19.7128 31.1219 18.5108 30.5232C18.3314 30.4338 18.1483 30.4149 17.9942 30.4561L16.1392 30.9525C14.8693 31.2922 13.7076 30.1305 14.0473 28.8606L14.5437 27.0056C14.5849 26.8515 14.5659 26.6684 14.4766 26.489C13.8779 25.287 13.5415 23.9319 13.5415 22.5ZM18.5415 21.25C18.5415 20.9048 18.8213 20.625 19.1665 20.625H25.8332C26.1783 20.625 26.4582 20.9048 26.4582 21.25C26.4582 21.5951 26.1783 21.875 25.8332 21.875H19.1665C18.8213 21.875 18.5415 21.5951 18.5415 21.25ZM18.5415 24.1666C18.5415 23.8214 18.8213 23.5416 19.1665 23.5416H23.7498C24.095 23.5416 24.3748 23.8214 24.3748 24.1666C24.3748 24.5118 24.095 24.7916 23.7498 24.7916H19.1665C18.8213 24.7916 18.5415 24.5118 18.5415 24.1666Z" fill="#3460FB"/>
<rect width="45" height="45" rx="22.5" fill="#F3F8FF"/>
<path d="M22.5 16.1283C22.9479 15.6206 23.5397 15.2613 24.1968 15.0982C24.854 14.9351 25.5451 14.9759 26.1785 15.2153C26.8118 15.4547 27.3572 15.8813 27.7421 16.4383C28.127 16.9953 28.3332 17.6563 28.3332 18.3333C28.3332 19.0104 28.127 19.6714 27.7421 20.2284C27.3572 20.7854 26.8118 21.2119 26.1785 21.4513C25.5451 21.6907 24.854 21.7316 24.1968 21.5685C23.5397 21.4054 22.9479 21.0461 22.5 20.5383M25 30H15V29.1667C15 27.8406 15.5268 26.5688 16.4645 25.6311C17.4021 24.6935 18.6739 24.1667 20 24.1667C21.3261 24.1667 22.5979 24.6935 23.5355 25.6311C24.4732 26.5688 25 27.8406 25 29.1667V30ZM25 30H30V29.1667C30.0001 28.2889 29.7692 27.4266 29.3304 26.6664C28.8916 25.9062 28.2604 25.2749 27.5003 24.836C26.7402 24.3971 25.8779 24.166 25.0002 24.166C24.1224 24.1659 23.2601 24.397 22.5 24.8358M23.3333 18.3333C23.3333 19.2174 22.9821 20.0652 22.357 20.6904C21.7319 21.3155 20.8841 21.6667 20 21.6667C19.1159 21.6667 18.2681 21.3155 17.643 20.6904C17.0179 20.0652 16.6667 19.2174 16.6667 18.3333C16.6667 17.4493 17.0179 16.6014 17.643 15.9763C18.2681 15.3512 19.1159 15 20 15C20.8841 15 21.7319 15.3512 22.357 15.9763C22.9821 16.6014 23.3333 17.4493 23.3333 18.3333Z" stroke="#3460FB" stroke-width="1.5" stroke-linecap="round" stroke-linejoin="round"/>
<rect x="0.75" y="0.75" width="43.5" height="43.5" rx="21.75" fill="#F8F9FA"/>
<rect x="0.75" y="0.75" width="43.5" height="43.5" rx="21.75" stroke="#3460FB" stroke-width="1.5"/>
<path d="M14.5 22.5H30.5M22.5 14.5V30.5" stroke="#3460FB" stroke-width="2" stroke-linecap="round" stroke-linejoin="round"/>
</svg>
