<svg width="45" height="45" viewBox="0 0 45 45" fill="none" xmlns="http://www.w3.org/2000/svg">
<path d="M15.8332 15H16.6665C17.5448 15 18.2648 15.68 18.329 16.5417L18.3332 16.6667V28.3333C18.3329 28.7536 18.1739 29.1583 17.8881 29.4664C17.6022 29.7745 17.2106 29.9633 16.7915 29.995L16.6665 30H15.8332C15.4127 29.9999 15.0079 29.8411 14.6996 29.5552C14.3913 29.2693 14.2024 28.8776 14.1707 28.4583L14.1665 28.3333V16.6667C14.1665 15.7883 14.8465 15.0683 15.7082 15.0042L15.8332 15ZM20.8332 15H21.6665C22.5448 15 23.2648 15.68 23.329 16.5417L23.3332 16.6667V28.3333C23.3329 28.7536 23.1739 29.1583 22.8881 29.4664C22.6022 29.7745 22.2106 29.9633 21.7915 29.995L21.6665 30H20.8332C20.4127 29.9999 20.0079 29.8411 19.6996 29.5552C19.3913 29.2693 19.2024 28.8776 19.1707 28.4583L19.1665 28.3333V16.6667C19.1665 15.7883 19.8465 15.0683 20.7082 15.0042L20.8332 15ZM26.6448 16.6667C27.3448 16.6667 27.9848 17.1092 28.2198 17.7883L28.259 17.9192L30.7715 27.7067C30.8761 28.1139 30.8229 28.5456 30.6226 28.9153C30.4223 29.2849 30.0898 29.5652 29.6915 29.7L29.5715 29.7358L28.764 29.9425C28.3587 30.046 27.9292 29.9935 27.5608 29.7953C27.1924 29.5971 26.9119 29.2678 26.7748 28.8725L26.7357 28.7433L24.2223 18.9558C24.1178 18.5484 24.1712 18.1165 24.3719 17.7468C24.5725 17.3771 24.9054 17.0969 25.304 16.9625L25.4232 16.9267L26.2298 16.72C26.3682 16.6842 26.5082 16.6667 26.6448 16.6667ZM16.6665 16.25H15.8332C15.7357 16.2501 15.6413 16.2844 15.5664 16.3468C15.4916 16.4092 15.4409 16.4958 15.4232 16.5917L15.4165 16.6667V28.3333C15.4165 28.5367 15.564 28.7083 15.7582 28.7433L15.8332 28.75H16.6665C16.8707 28.75 17.0415 28.6017 17.0765 28.4083L17.0832 28.3333V16.6667C17.083 16.5692 17.0488 16.4748 16.9864 16.3999C16.924 16.3251 16.8374 16.2744 16.7415 16.2567L16.6665 16.25ZM21.6665 16.25H20.8332C20.7357 16.2501 20.6413 16.2844 20.5664 16.3468C20.4916 16.4092 20.4409 16.4958 20.4232 16.5917L20.4165 16.6667V28.3333C20.4165 28.5367 20.564 28.7083 20.7582 28.7433L20.8332 28.75H21.6665C21.8707 28.75 22.0415 28.6017 22.0765 28.4083L22.0832 28.3333V16.6667C22.083 16.5692 22.0488 16.4748 21.9864 16.3999C21.924 16.3251 21.8374 16.2744 21.7415 16.2567L21.6665 16.25ZM26.6457 17.9167L26.5932 17.92L26.5407 17.9308L25.734 18.1367C25.6406 18.1601 25.5582 18.2154 25.501 18.2929C25.4439 18.3705 25.4154 18.4655 25.4207 18.5617L25.4332 18.645L27.9465 28.4325C27.9696 28.5218 28.0216 28.6009 28.0944 28.6575C28.1673 28.714 28.2568 28.7448 28.349 28.745L28.4015 28.7425L28.4532 28.7325L29.2615 28.5242C29.3558 28.4999 29.4386 28.4433 29.4956 28.3643C29.5525 28.2853 29.58 28.1888 29.5732 28.0917L29.5607 28.0183L27.0482 18.2292C27.025 18.14 26.9729 18.0609 26.9001 18.0044C26.8273 17.9479 26.7378 17.917 26.6457 17.9167Z" fill="#6B7280"/>
</svg>
