<svg width="45" height="45" viewBox="0 0 45 45" fill="none" xmlns="http://www.w3.org/2000/svg">
<path d="M24 21.75C24 21.3358 24.3358 21 24.75 21C25.1642 21 25.5 21.3358 25.5 21.75V23.25C25.5 23.6642 25.1642 24 24.75 24C24.3358 24 24 23.6642 24 23.25V21.75Z" stroke="#6B7280" stroke-width="1.5"/>
<path d="M24.0059 27.7522L23.2559 27.75L23.2559 27.75L24.0059 27.7522ZM24.0103 26.25L24.7603 26.2522V26.25H24.0103ZM15.8622 27.6213L15.3325 28.1523L15.3325 28.1523L15.8622 27.6213ZM15.8622 17.3787L15.3325 16.8477L15.3325 16.8477L15.8622 17.3787ZM15.7148 21.1902L15.3491 21.8451L15.3491 21.8451L15.7148 21.1902ZM15.0079 20.2421L14.2586 20.2106L14.2586 20.2106L15.0079 20.2421ZM15.7148 23.8098L15.3491 23.1549L15.3491 23.1549L15.7148 23.8098ZM15.0079 24.7579L15.7573 24.7264L15.7573 24.7264L15.0079 24.7579ZM29.2852 21.1902L29.6509 21.8451L29.6509 21.8451L29.2852 21.1902ZM29.9921 20.2421L30.7414 20.2106L30.7414 20.2106L29.9921 20.2421ZM29.1378 17.3787L29.6675 16.8477L29.6675 16.8477L29.1378 17.3787ZM29.2852 23.8098L28.9195 24.4646L28.9195 24.4646L29.2852 23.8098ZM29.9921 24.7579L30.7414 24.7894L30.7414 24.7894L29.9921 24.7579ZM29.1378 27.6213L29.6675 28.1523L29.6675 28.1523L29.1378 27.6213ZM29.9577 24.249L30.6122 23.8826L30.6122 23.8826L29.9577 24.249ZM29.9577 20.751L30.6122 21.1174L30.6122 21.1174L29.9577 20.751ZM15.0423 24.249L14.3878 23.8826L14.3878 23.8826L15.0423 24.249ZM15.0423 20.751L15.6967 20.3847L15.6967 20.3847L15.0423 20.751ZM24.0103 18.75L24.7603 18.75L24.7603 18.7478L24.0103 18.75ZM24.0048 16.8739L23.2548 16.8761L23.2548 16.8761L24.0048 16.8739ZM25.8958 16.5142L25.9152 15.7644L25.9152 15.7644L25.8958 16.5142ZM26.2752 28.4731L26.3069 29.2224L26.3069 29.2224L26.2752 28.4731ZM23.8946 28.3905L23.365 27.8594L23.365 27.8595L23.8946 28.3905ZM24.7559 27.7544L24.7603 26.2522L23.2603 26.2478L23.2559 27.75L24.7559 27.7544ZM24.7621 26.25C24.764 26.25 24.7639 26.2502 24.7633 26.25C24.7631 26.2499 24.7635 26.25 24.7641 26.2507C24.7647 26.2513 24.7647 26.2515 24.7644 26.2508C24.7639 26.2497 24.764 26.2489 24.764 26.25H26.264C26.264 25.4198 25.5898 24.75 24.7621 24.75V26.25ZM24.7621 24.75C23.9344 24.75 23.2603 25.4198 23.2603 26.25H24.7603C24.7603 26.2489 24.7603 26.2497 24.7598 26.2508C24.7596 26.2515 24.7595 26.2513 24.7602 26.2507C24.7608 26.25 24.7612 26.2499 24.761 26.25C24.7603 26.2502 24.7602 26.25 24.7621 26.25V24.75ZM20.9963 17.25H23.6289V15.75H20.9963V17.25ZM23.2559 27.75H20.9963V29.25H23.2559V27.75ZM20.9963 27.75C19.5574 27.75 18.5535 27.7484 17.7959 27.6468C17.0598 27.5481 16.6696 27.3674 16.3919 27.0903L15.3325 28.1523C15.9356 28.7539 16.6948 29.0126 17.5966 29.1335C18.477 29.2516 19.5997 29.25 20.9963 29.25V27.75ZM20.9963 15.75C19.5997 15.75 18.477 15.7484 17.5966 15.8665C16.6948 15.9874 15.9356 16.2461 15.3325 16.8477L16.3919 17.9097C16.6696 17.6326 17.0598 17.4519 17.7959 17.3532C18.5535 17.2516 19.5574 17.25 20.9963 17.25V15.75ZM15.3491 21.8451C15.5816 21.9749 15.7351 22.2205 15.7351 22.5H17.2351C17.2351 21.654 16.7671 20.9189 16.0805 20.5354L15.3491 21.8451ZM15.7573 20.2736C15.8157 18.8841 16.0062 18.2943 16.3919 17.9097L15.3325 16.8477C14.5051 17.673 14.3179 18.801 14.2586 20.2106L15.7573 20.2736ZM15.7351 22.5C15.7351 22.7795 15.5816 23.0251 15.3491 23.1549L16.0805 24.4646C16.7671 24.0811 17.2351 23.346 17.2351 22.5H15.7351ZM14.2586 24.7894C14.3179 26.199 14.5051 27.327 15.3325 28.1523L16.3919 27.0903C16.0062 26.7057 15.8157 26.1159 15.7573 24.7264L14.2586 24.7894ZM29.2649 22.5C29.2649 22.2205 29.4184 21.9749 29.6509 21.8451L28.9195 20.5354C28.2329 20.9189 27.7649 21.654 27.7649 22.5H29.2649ZM30.7414 20.2106C30.6821 18.801 30.4949 17.673 29.6675 16.8477L28.6081 17.9097C28.9938 18.2943 29.1843 18.8841 29.2427 20.2736L30.7414 20.2106ZM29.6509 23.1549C29.4184 23.0251 29.2649 22.7795 29.2649 22.5H27.7649C27.7649 23.346 28.2329 24.0811 28.9195 24.4646L29.6509 23.1549ZM29.2427 24.7264C29.1843 26.1159 28.9938 26.7057 28.6081 27.0903L29.6675 28.1523C30.4949 27.327 30.6821 26.199 30.7414 24.7894L29.2427 24.7264ZM28.9195 24.4646C29.1345 24.5846 29.2683 24.6596 29.3571 24.7156C29.4005 24.743 29.4133 24.7537 29.4105 24.7514C29.4081 24.7494 29.3954 24.7388 29.3779 24.7196C29.3607 24.7009 29.3318 24.6662 29.3033 24.6153L30.6122 23.8826C30.5337 23.7424 30.4303 23.6483 30.3674 23.5962C30.2983 23.539 30.2239 23.4889 30.1574 23.447C30.0263 23.3643 29.8497 23.266 29.6509 23.1549L28.9195 24.4646ZM30.7414 24.7894C30.7467 24.6642 30.7533 24.522 30.748 24.4011C30.7426 24.2782 30.7232 24.081 30.6122 23.8826L29.3033 24.6153C29.2732 24.5615 29.2595 24.5147 29.2535 24.4869C29.2481 24.462 29.2488 24.4516 29.2494 24.467C29.2501 24.4822 29.2504 24.5086 29.2492 24.555C29.248 24.6011 29.2457 24.6552 29.2427 24.7264L30.7414 24.7894ZM29.6509 21.8451C29.8497 21.734 30.0263 21.6357 30.1574 21.553C30.2239 21.5111 30.2983 21.461 30.3674 21.4038C30.4303 21.3517 30.5337 21.2576 30.6122 21.1174L29.3033 20.3847C29.3318 20.3338 29.3607 20.2991 29.3779 20.2804C29.3954 20.2612 29.4081 20.2506 29.4105 20.2486C29.4133 20.2463 29.4005 20.257 29.3571 20.2844C29.2683 20.3404 29.1345 20.4154 28.9195 20.5354L29.6509 21.8451ZM29.2427 20.2736C29.2457 20.3448 29.248 20.3989 29.2492 20.445C29.2504 20.4914 29.2501 20.5178 29.2494 20.533C29.2488 20.5484 29.2481 20.538 29.2535 20.5131C29.2595 20.4853 29.2732 20.4385 29.3033 20.3847L30.6122 21.1174C30.7232 20.919 30.7426 20.7218 30.748 20.5989C30.7533 20.478 30.7467 20.3358 30.7414 20.2106L29.2427 20.2736ZM15.3491 23.1549C15.1503 23.266 14.9737 23.3643 14.8426 23.447C14.7761 23.4889 14.7017 23.539 14.6326 23.5962C14.5697 23.6483 14.4663 23.7424 14.3878 23.8826L15.6967 24.6153C15.6682 24.6662 15.6393 24.7009 15.6221 24.7196C15.6046 24.7388 15.5919 24.7494 15.5895 24.7514C15.5867 24.7537 15.5995 24.743 15.6429 24.7156C15.7317 24.6596 15.8655 24.5846 16.0805 24.4646L15.3491 23.1549ZM15.7573 24.7264C15.7543 24.6552 15.752 24.6011 15.7508 24.555C15.7496 24.5086 15.7499 24.4822 15.7506 24.467C15.7512 24.4516 15.7518 24.462 15.7465 24.4869C15.7405 24.5147 15.7268 24.5615 15.6967 24.6153L14.3878 23.8826C14.2768 24.081 14.2574 24.2782 14.252 24.4011C14.2467 24.522 14.2533 24.6642 14.2586 24.7894L15.7573 24.7264ZM16.0805 20.5354C15.8655 20.4154 15.7317 20.3404 15.6429 20.2844C15.5995 20.257 15.5867 20.2463 15.5895 20.2486C15.5919 20.2506 15.6046 20.2612 15.6221 20.2804C15.6393 20.2991 15.6682 20.3338 15.6967 20.3847L14.3878 21.1174C14.4663 21.2576 14.5697 21.3517 14.6326 21.4038C14.7017 21.461 14.7761 21.5111 14.8426 21.553C14.9737 21.6357 15.1503 21.734 15.3491 21.8451L16.0805 20.5354ZM14.2586 20.2106C14.2533 20.3358 14.2467 20.478 14.252 20.5989C14.2574 20.7218 14.2768 20.919 14.3878 21.1174L15.6967 20.3847C15.7268 20.4385 15.7405 20.4853 15.7465 20.5131C15.7518 20.538 15.7512 20.5484 15.7506 20.533C15.7499 20.5178 15.7496 20.4914 15.7508 20.445C15.752 20.3989 15.7543 20.3448 15.7573 20.2736L14.2586 20.2106ZM24.7603 18.7478L24.7548 16.8717L23.2548 16.8761L23.2603 18.7522L24.7603 18.7478ZM24.7621 18.75C24.7602 18.75 24.7603 18.7498 24.761 18.75C24.7612 18.7501 24.7608 18.75 24.7602 18.7493C24.7595 18.7487 24.7596 18.7485 24.7598 18.7492C24.7603 18.7503 24.7603 18.7511 24.7603 18.75H23.2603C23.2603 19.5802 23.9344 20.25 24.7621 20.25V18.75ZM24.764 18.75C24.764 18.7511 24.7639 18.7503 24.7644 18.7492C24.7647 18.7485 24.7647 18.7487 24.7641 18.7493C24.7635 18.75 24.7631 18.7501 24.7633 18.75C24.7639 18.7498 24.764 18.75 24.7621 18.75V20.25C25.5898 20.25 26.264 19.5802 26.264 18.75H24.764ZM24.764 16.8871V18.75H26.264V16.8871H24.764ZM25.8765 17.2639C27.5228 17.3064 28.1847 17.4872 28.6081 17.9097L29.6675 16.8477C28.7744 15.9568 27.5201 15.8058 25.9152 15.7644L25.8765 17.2639ZM26.264 16.8871C26.264 17.0967 26.0914 17.2695 25.8765 17.2639L25.9152 15.7644C25.2809 15.7481 24.764 16.2591 24.764 16.8871H26.264ZM23.6289 17.25C23.4245 17.25 23.2554 17.0845 23.2548 16.8761L24.7548 16.8717C24.753 16.2499 24.2477 15.75 23.6289 15.75V17.25ZM26.3069 29.2224C27.7154 29.1629 28.8421 28.9756 29.6675 28.1523L28.6081 27.0903C28.2228 27.4747 27.6317 27.6651 26.2436 27.7238L26.3069 29.2224ZM24.764 26.25V27.7324H26.264V26.25H24.764ZM23.2559 27.75C23.2556 27.8409 23.2554 27.9078 23.2538 27.9642C23.2522 28.021 23.2496 28.0487 23.248 28.0606C23.2464 28.0719 23.2484 28.0479 23.2652 28.0073C23.2845 27.9606 23.3171 27.9073 23.365 27.8594L24.4242 28.9217C24.6415 28.705 24.7087 28.4494 24.7341 28.2645C24.7565 28.1012 24.7555 27.9095 24.7559 27.7544L23.2559 27.75ZM23.2559 29.25C23.411 29.25 23.6028 29.2516 23.7661 29.2296C23.9511 29.2048 24.2068 29.1383 24.4242 28.9216L23.365 27.8595C23.413 27.8116 23.4665 27.7792 23.5131 27.7601C23.5539 27.7433 23.5779 27.7415 23.5665 27.743C23.5546 27.7446 23.5269 27.7471 23.4701 27.7485C23.4137 27.75 23.3468 27.75 23.2559 27.75V29.25ZM26.2436 27.7238C26.1523 27.7276 26.0858 27.7304 26.0297 27.7313C25.9732 27.7322 25.9467 27.7307 25.9365 27.7297C25.927 27.7287 25.9534 27.7301 25.9969 27.7467C26.0466 27.7657 26.1008 27.7977 26.1485 27.8434L25.1105 28.9262C25.3354 29.1418 25.5962 29.2035 25.7897 29.2225C25.9574 29.239 26.1523 29.229 26.3069 29.2224L26.2436 27.7238ZM24.764 27.7324C24.764 27.891 24.7623 28.0879 24.7855 28.2555C24.812 28.4466 24.8831 28.7082 25.1105 28.9262L26.1485 27.8434C26.1978 27.8906 26.2321 27.9446 26.2528 27.9931C26.2708 28.0353 26.2729 28.0607 26.2713 28.0495C26.2697 28.0378 26.2671 28.0097 26.2656 27.9516C26.2641 27.8939 26.264 27.8255 26.264 27.7324H24.764Z" fill="#6B7280"/>
</svg>
