<svg width="21" height="21" viewBox="0 0 21 21" fill="none" xmlns="http://www.w3.org/2000/svg">
<path fill-rule="evenodd" clip-rule="evenodd" d="M13.9133 3.91688C13.4224 3.73135 12.8868 3.69968 12.3775 3.82608C12.0605 3.90476 11.7631 4.04238 11.5 4.23C11.8785 4.85995 12.0833 5.58608 12.0833 6.33333C12.0833 7.08058 11.8785 7.80672 11.5 8.43667C11.7631 8.62429 12.0605 8.76191 12.3775 8.84059C12.8868 8.96699 13.4224 8.93532 13.9133 8.74978C14.4041 8.56425 14.8268 8.23365 15.1251 7.80199C15.4234 7.37032 15.5831 6.85805 15.5831 6.33333C15.5831 5.80862 15.4234 5.29635 15.1251 4.86468C14.8268 4.43301 14.4041 4.10242 13.9133 3.91688ZM10.4999 9.56198C10.9466 9.90782 11.4625 10.159 12.0162 10.2964C12.8211 10.4962 13.6678 10.4461 14.4437 10.1529C15.2195 9.85962 15.8876 9.33706 16.3591 8.65475C16.8306 7.97244 17.0831 7.16272 17.0831 6.33333C17.0831 5.50395 16.8306 4.69423 16.3591 4.01192C15.8876 3.3296 15.2195 2.80705 14.4437 2.51379C13.6678 2.22052 12.8211 2.17046 12.0162 2.37025C11.4625 2.50768 10.9466 2.75885 10.4999 3.10469C9.78822 2.5536 8.90976 2.25 8 2.25C6.91703 2.25 5.87842 2.68021 5.11265 3.44598C4.34687 4.21175 3.91667 5.25037 3.91667 6.33333C3.91667 7.4163 4.34687 8.45491 5.11265 9.22069C5.87842 9.98646 6.91703 10.4167 8 10.4167C8.90976 10.4167 9.78821 10.1131 10.4999 9.56198ZM8 3.75C7.31486 3.75 6.65778 4.02217 6.17331 4.50664C5.68884 4.99111 5.41667 5.64819 5.41667 6.33333C5.41667 7.01848 5.68884 7.67556 6.17331 8.16003C6.65778 8.6445 7.31486 8.91667 8 8.91667C8.68514 8.91667 9.34222 8.6445 9.82669 8.16003C10.3112 7.67556 10.5833 7.01848 10.5833 6.33333C10.5833 5.64819 10.3112 4.99111 9.82669 4.50664C9.34222 4.02217 8.68514 3.75 8 3.75ZM10.4993 11.9882C11.2775 11.6123 12.1323 11.4159 13.0002 11.416C14.0096 11.416 15.0012 11.6818 15.8754 12.1865C16.7495 12.6913 17.4753 13.4173 17.9799 14.2915C18.4845 15.1657 18.7501 16.1573 18.75 17.1667C18.75 17.1667 18.75 17.1666 18.75 17.1667V18C18.75 18.4142 18.4142 18.75 18 18.75H3C2.58579 18.75 2.25 18.4142 2.25 18V17.1667C2.25 15.6417 2.8558 14.1791 3.93414 13.1008C5.01247 12.0225 6.475 11.4167 8 11.4167C8.87377 11.4167 9.72703 11.6155 10.4993 11.9882ZM11.9994 13.0354C12.0217 13.057 12.0439 13.0788 12.0659 13.1008C13.1442 14.1791 13.75 15.6417 13.75 17.1667V17.25H17.25V17.1667C17.2501 16.4206 17.0538 15.6875 16.6808 15.0414C16.3079 14.3952 15.7714 13.8586 15.1253 13.4855C14.4792 13.1124 13.7462 12.916 13.0001 12.916C12.6616 12.9159 12.3257 12.9564 11.9994 13.0354ZM12.25 17.25V17.1667C12.25 16.0395 11.8022 14.9585 11.0052 14.1615C10.2082 13.3644 9.12717 12.9167 8 12.9167C6.87283 12.9167 5.79183 13.3644 4.9948 14.1615C4.19777 14.9585 3.75 16.0395 3.75 17.1667V17.25H12.25Z" fill="#6B7280"/>
</svg>
