<svg width="20" height="20" viewBox="0 0 20 20" fill="none" xmlns="http://www.w3.org/2000/svg">
<g id="Linear / Messages, Conversation / Dialog" clip-path="url(#clip0_7057_4095)">
<path id="Vector" d="M8.33268 18.3333C12.0146 18.3333 14.9993 15.3486 14.9993 11.6667C14.9993 7.98477 12.0146 5 8.33268 5C4.65078 5 1.66602 7.98477 1.66602 11.6667C1.66602 12.6963 1.89941 13.6713 2.31618 14.5419C2.45943 14.8411 2.50972 15.1801 2.42398 15.5005L2.15061 16.5222C1.93514 17.3275 2.67186 18.0642 3.47714 17.8487L4.49884 17.5754C4.81929 17.4896 5.15827 17.5399 5.45748 17.6832C6.32802 18.0999 7.30309 18.3333 8.33268 18.3333Z" stroke="#111928" stroke-width="1.5"/>
<path id="Vector_2" d="M14.9993 12.0847C15.0547 12.0616 15.1097 12.0376 15.1641 12.0127C15.4659 11.8749 15.8044 11.8234 16.1249 11.9091L16.5216 12.0152C17.3268 12.2307 18.0636 11.494 17.8481 10.6887L17.7419 10.292C17.6562 9.97156 17.7078 9.63301 17.8456 9.33127C18.1584 8.64649 18.3327 7.88519 18.3327 7.08317C18.3327 4.09163 15.9076 1.6665 12.916 1.6665C10.6641 1.6665 8.7332 3.04066 7.91602 4.99617" stroke="#111928" stroke-width="1.5"/>
<path id="Vector_3" d="M5.43182 11.6665H5.43932M8.34075 11.6665H8.34825M11.2499 11.6665H11.2574" stroke="#111928" stroke-width="2" stroke-linecap="round" stroke-linejoin="round"/>
</g>
<defs>
<clipPath id="clip0_7057_4095">
<rect width="20" height="20" fill="white"/>
</clipPath>
</defs>
</svg>
