<svg width="20" height="20" viewBox="0 0 20 20" fill="none" xmlns="http://www.w3.org/2000/svg">
<g id="Linear / Messages, Conversation / Inbox" clip-path="url(#clip0_7052_3755)">
<path id="Vector" d="M1.66602 9.99984C1.66602 6.07147 1.66602 4.10728 2.8864 2.88689C4.10679 1.6665 6.07098 1.6665 9.99935 1.6665C13.9277 1.6665 15.8919 1.6665 17.1123 2.88689C18.3327 4.10728 18.3327 6.07147 18.3327 9.99984C18.3327 13.9282 18.3327 15.8924 17.1123 17.1128C15.8919 18.3332 13.9277 18.3332 9.99935 18.3332C6.07098 18.3332 4.10679 18.3332 2.8864 17.1128C1.66602 15.8924 1.66602 13.9282 1.66602 9.99984Z" stroke="#111928" stroke-width="1.5"/>
<path id="Vector_2" d="M1.66602 10.8335H4.29957C5.05388 10.8335 5.43103 10.8335 5.76255 10.986C6.09407 11.1385 6.33952 11.4248 6.83042 11.9975L7.33494 12.5861C7.82584 13.1588 8.07129 13.4452 8.40281 13.5977C8.73433 13.7502 9.11149 13.7502 9.8658 13.7502H10.1329C10.8872 13.7502 11.2644 13.7502 11.5959 13.5977C11.9274 13.4452 12.1729 13.1588 12.6638 12.5861L13.1683 11.9975C13.6592 11.4248 13.9046 11.1385 14.2361 10.986C14.5677 10.8335 14.9448 10.8335 15.6991 10.8335H18.3327" stroke="#111928" stroke-width="1.5" stroke-linecap="round"/>
</g>
<defs>
<clipPath id="clip0_7052_3755">
<rect width="20" height="20" fill="white"/>
</clipPath>
</defs>
</svg>
