<svg width="41" height="40" viewBox="0 0 41 40" fill="none" xmlns="http://www.w3.org/2000/svg">
<rect x="0.5" width="40" height="40" rx="20" fill="#3460FB"/>
<path d="M26.0469 15.1736H14.9531C14.3025 15.1736 13.6785 14.9144 13.2185 14.453C12.7585 13.9916 12.5 13.3658 12.5 12.7133V10.2529H26.0469C26.6975 10.2529 27.3214 10.5121 27.7815 10.9735C28.2415 11.4349 28.5 12.0607 28.5 12.7133C28.5 13.3658 28.2415 13.9916 27.7815 14.453C27.3214 14.9144 26.6975 15.1736 26.0469 15.1736Z" fill="white"/>
<path d="M26.0469 22.4616H14.9531C14.3025 22.4615 13.6787 22.2022 13.2187 21.7408C12.7587 21.2794 12.5002 20.6537 12.5 20.0012C12.5 19.3487 12.7585 18.7229 13.2185 18.2615C13.6785 17.8001 14.3025 17.5409 14.9531 17.5409H28.4981V20.0012C28.4981 20.6535 28.2399 21.279 27.7803 21.7403C27.3206 22.2017 26.6972 22.4611 26.0469 22.4616Z" fill="white"/>
<path d="M14.9525 24.8289C14.4676 24.8287 13.9935 24.9728 13.5903 25.2429C13.187 25.513 12.8726 25.8969 12.6869 26.3462C12.5012 26.7955 12.4525 27.2899 12.5469 27.7669C12.6414 28.2439 12.8747 28.6822 13.2175 29.0262C13.5602 29.3702 13.997 29.6046 14.4725 29.6997C14.9481 29.7947 15.4411 29.7463 15.8891 29.5603C16.3372 29.3744 16.7203 29.0594 16.9898 28.6552C17.2594 28.2509 17.4035 27.7756 17.4037 27.2892C17.4039 26.637 17.1457 26.0114 16.6861 25.55C16.2264 25.0886 15.6028 24.8292 14.9525 24.8289ZM16.0693 27.8112C16.0694 27.8567 16.0605 27.9017 16.0432 27.9437C16.0259 27.9857 16.0004 28.0239 15.9683 28.056C15.9363 28.0881 15.8982 28.1136 15.8562 28.1309C15.8143 28.1482 15.7694 28.157 15.7241 28.1569H14.1722C14.0808 28.1569 13.9931 28.1204 13.9285 28.0556C13.8638 27.9908 13.8275 27.9029 13.8275 27.8112C13.8275 27.7195 13.8638 27.6316 13.9285 27.5668C13.9931 27.5019 14.0808 27.4655 14.1722 27.4655H16.0693V27.8112ZM15.7241 27.1055H14.1722C14.0814 27.106 13.9941 27.0703 13.9295 27.0063C13.8648 26.9423 13.8282 26.8552 13.8275 26.7642V26.4185H15.7241C15.815 26.4185 15.9022 26.4547 15.9664 26.5192C16.0307 26.5836 16.0668 26.6711 16.0668 26.7623C16.0668 26.8535 16.0307 26.9409 15.9664 27.0054C15.9022 27.0699 15.815 27.1061 15.7241 27.1061V27.1055Z" fill="white"/>
</svg>
