<svg width="21" height="20" viewBox="0 0 21 20" fill="none" xmlns="http://www.w3.org/2000/svg">
<g id="Notfications">
<path id="Vector" d="M16.1243 8.09114V7.50397C16.1243 4.28003 13.6062 1.6665 10.5 1.6665C7.3938 1.6665 4.87573 4.28003 4.87573 7.50397V8.09114C4.87573 8.7958 4.67476 9.48469 4.29817 10.071L3.3753 11.5078C2.53235 12.8201 3.17587 14.6039 4.64197 15.0189C8.47728 16.1046 12.5227 16.1046 16.358 15.0189C17.8241 14.6039 18.4676 12.8201 17.6247 11.5078L16.7018 10.071C16.3252 9.48469 16.1243 8.7958 16.1243 8.09114Z" stroke="#6B7280" stroke-width="1.5"/>
<path id="Vector_2" d="M6.75 15.8335C7.29586 17.29 8.76871 18.3335 10.5 18.3335C12.2313 18.3335 13.7041 17.29 14.25 15.8335" stroke="#6B7280" stroke-width="1.5" stroke-linecap="round"/>
</g>
</svg>
