<svg width="21" height="21" viewBox="0 0 21 21" fill="none" xmlns="http://www.w3.org/2000/svg">
<path fill-rule="evenodd" clip-rule="evenodd" d="M12.25 6.3335C12.25 5.91928 12.5858 5.5835 13 5.5835H18C18.4142 5.5835 18.75 5.91928 18.75 6.3335V11.3335C18.75 11.7477 18.4142 12.0835 18 12.0835C17.5858 12.0835 17.25 11.7477 17.25 11.3335V8.14416L13.0422 12.352C12.0984 13.2958 10.5683 13.2957 9.62449 12.352L8.64818 11.3757C8.2902 11.0177 7.7098 11.0177 7.35182 11.3757L3.53033 15.1972C3.23744 15.4901 2.76256 15.4901 2.46967 15.1972C2.17678 14.9043 2.17678 14.4294 2.46967 14.1365L6.29116 10.315C7.23492 9.37124 8.76507 9.37124 9.70884 10.315L10.6852 11.2913C11.0431 11.6493 11.6235 11.6493 11.9815 11.2913L16.1893 7.0835H13C12.5858 7.0835 12.25 6.74771 12.25 6.3335Z" fill="#6B7280"/>
</svg>
