<svg width="21" height="20" viewBox="0 0 21 20" fill="none" xmlns="http://www.w3.org/2000/svg">
<g id="Settings">
<circle id="Vector" cx="10.5" cy="10" r="2.5" stroke="#6B7280" stroke-width="1.5"/>
<path id="Vector_2" d="M11.9706 1.79337C11.6643 1.6665 11.276 1.6665 10.4994 1.6665C9.72285 1.6665 9.33457 1.6665 9.02828 1.79337C8.6199 1.96253 8.29544 2.28698 8.12629 2.69536C8.04907 2.88179 8.01885 3.09859 8.00702 3.41483C7.98965 3.87957 7.75131 4.30975 7.34855 4.54228C6.94579 4.77481 6.45409 4.76612 6.04293 4.5488C5.76313 4.40092 5.56027 4.31869 5.36021 4.29235C4.92196 4.23465 4.47875 4.35341 4.12806 4.6225C3.86505 4.82432 3.67091 5.16059 3.28262 5.83311C2.89434 6.50564 2.7002 6.84191 2.65692 7.17059C2.59923 7.60884 2.71799 8.05205 2.98708 8.40274C3.1099 8.5628 3.28252 8.69736 3.55042 8.86569C3.94426 9.11316 4.19767 9.53472 4.19765 9.99986C4.19762 10.4649 3.94422 10.8864 3.55042 11.1339C3.28247 11.3022 3.10983 11.4368 2.987 11.5969C2.71791 11.9476 2.59915 12.3908 2.65684 12.829C2.70012 13.1577 2.89426 13.494 3.28254 14.1665C3.67083 14.839 3.86497 15.1753 4.12798 15.3771C4.47867 15.6462 4.92188 15.765 5.36013 15.7073C5.56018 15.6809 5.76303 15.5987 6.0428 15.4508C6.45399 15.2335 6.94573 15.2248 7.34851 15.4574C7.7513 15.6899 7.98964 16.1201 8.00703 16.5849C8.01885 16.9011 8.04907 17.1179 8.12629 17.3043C8.29544 17.7127 8.6199 18.0371 9.02828 18.2063C9.33457 18.3332 9.72285 18.3332 10.4994 18.3332C11.276 18.3332 11.6643 18.3332 11.9706 18.2063C12.3789 18.0371 12.7034 17.7127 12.8726 17.3043C12.9498 17.1179 12.98 16.9011 12.9918 16.5848C13.0092 16.1201 13.2475 15.6899 13.6502 15.4574C14.053 15.2248 14.5448 15.2335 14.956 15.4508C15.2357 15.5987 15.4386 15.6809 15.6386 15.7072C16.0769 15.7649 16.5201 15.6461 16.8708 15.3771C17.1338 15.1752 17.3279 14.839 17.7162 14.1664C18.1045 13.4939 18.2986 13.1577 18.3419 12.829C18.3996 12.3907 18.2809 11.9475 18.0118 11.5968C17.8889 11.4367 17.7163 11.3022 17.4484 11.1338C17.0546 10.8864 16.8012 10.4649 16.8012 9.99976C16.8012 9.53471 17.0546 9.11324 17.4484 8.86583C17.7164 8.69746 17.889 8.56288 18.0118 8.40279C18.2809 8.05211 18.3997 7.60889 18.342 7.17065C18.2987 6.84196 18.1046 6.5057 17.7163 5.83317C17.328 5.16064 17.1339 4.82438 16.8709 4.62256C16.5202 4.35347 16.077 4.23471 15.6387 4.29241C15.4387 4.31875 15.2358 4.40097 14.956 4.54883C14.5449 4.76616 14.0531 4.77485 13.6503 4.54231C13.2475 4.30976 13.0092 3.87955 12.9918 3.41479C12.98 3.09857 12.9498 2.88178 12.8726 2.69536C12.7034 2.28698 12.3789 1.96253 11.9706 1.79337Z" stroke="#6B7280" stroke-width="1.5"/>
</g>
</svg>
